<svg class="svg-icon" style="width: 1em; height: 1em;vertical-align: middle;fill: currentColor;overflow: hidden;" viewBox="0 0 1024 1024" version="1.1" xmlns="http://www.w3.org/2000/svg"><path d="M343.56855 678.891635c-15.443313 0-27.992133 12.546563-27.992133 27.989875v83.976399c0 15.44557 12.54882 27.992133 27.992133 27.992133 15.472664 0 27.992133-12.54882 27.992133-27.992133v-83.976399c0-15.44557-12.519469-27.989875-27.992133-27.989875zM567.505614 678.891635c-15.443313 0-27.987617 12.546563-27.987618 27.989875v111.97079c0 15.443313 12.546563 27.989875 27.987618 27.989875 15.474922 0 27.994391-12.54882 27.99439-27.989875v-111.97079c0-15.44557-12.521727-27.989875-27.99439-27.989875zM455.537082 678.891635c-15.443313 0-27.989875 12.546563-27.989876 27.989875v195.944931c0 15.44557 12.546563 27.992133 27.989876 27.992133 15.472664 0 27.992133-12.54882 27.992133-27.992133v-195.944931c0.002258-15.44557-12.519469-27.989875-27.992133-27.989875zM679.474146 678.891635c-15.44557 0-27.992133 12.546563-27.992133 27.989875v195.944931c0 15.44557 12.54882 27.992133 27.992133 27.992133 15.474922 0 27.992133-12.54882 27.992133-27.992133v-195.944931c0.002258-15.44557-12.517211-27.989875-27.992133-27.989875zM846.388358 373.574635c-12.957481-157.948512-145.648049-282.517793-306.87262-282.517793-143.078679 0-266.501001 92.860819-302.17415 223.937064h-5.739313c-92.61472 0-167.952798 75.338078-167.952798 167.952798 0 92.616978 75.338078 167.952798 167.952798 167.952798h587.830278c77.169149 0 139.960665-62.791516 139.960665-139.958407 0.002258-67.959607-48.687075-124.763452-113.00486-137.36646z m-26.953547 221.338343H231.602275c-61.725837 0-111.968532-50.229148-111.968532-111.968532s50.242695-111.968532 111.968532-111.968532h27.989876c13.476774 0 25.038938-9.595626 27.527027-22.824042 21.898346-116.533792 128.041769-201.110764 252.39656-201.110764 138.917564 0 251.929197 113.007117 251.929197 251.929197 0 15.44557 12.546563 27.992133 27.987618 27.992133 46.309618 0 83.976399 37.671297 83.976399 83.976399s-37.666781 83.974141-83.974141 83.974141z" fill="#040000" /></svg>